<?xml version="1.0" encoding="UTF-8" standalone="no"?> <svg xmlns="http://www.w3.org/2000/svg" width="48" height="36" viewBox="0 0 48 36">
  <defs>
    <style>
      .a {
        fill: #d3d4ed;
      }
    </style>
  </defs>
  <title>19 Folder_5</title>
  <path class="a" d="M47.9,18.61l-4.75,14A5,5,0,0,1,38.42,36H5a5,5,0,0,1-5-5V5A5,5,0,0,1,5,0h8.56A3,3,0,0,1,15.9,1.13l2.2,2.74A3,3,0,0,0,20.44,5H37a5,5,0,0,1,5,5h0a2,2,0,0,1-2,2H18.33a7,7,0,0,0-6.46,4.31L8.15,25.23a2,2,0,0,0,1.08,2.62A2.07,2.07,0,0,0,10,28a2,2,0,0,0,1.85-1.23l3.71-8.92A3,3,0,0,1,18.33,16H46A2,2,0,0,1,47.9,18.61Z"/>
</svg>
